# xmcd
#
# Track frame offsets:
#	150
#	25017
#	42245
#	65707
#	82140
#	101020
#	128720
#	146890
#	163570
#	184877
#	196632
#
# Disc length: 2846 seconds
#
# Revision: 0
# Processed by: cddbd v1.5PL3 Copyright (c) Steve Scherf et al.
# Submitted via: dBpowerAMP V4.0
#
DISCID=980b1c0b
DTITLE=Bobby Womack - The Poet II (Extended)
DYEAR=1984
DGENRE=R&B
TTITLE0=Love Has Finally Come At Last
TTITLE1=It Takes A Lot Of Strength To Say Goodbye
TTITLE2=Through The Eyes Of A Child
TTITLE3=Surprise, Surprise
TTITLE4=Tryin' To Get Over You
TTITLE5=Tell Me Why
TTITLE6=Who's Foolin' Who
TTITLE7=I Wish I Had Someone To Go Home To
TTITLE8=American Dream
TTITLE9=Surprise, Surprise (Acoustic)
TTITLE10=Tryin' To Get Over You (Acoustic)
EXTD=oldskoolmaster2000@yahoo.es
EXTT0=
EXTT1=
EXTT2=
EXTT3=
EXTT4=
EXTT5=
EXTT6=
EXTT7=
EXTT8=
EXTT9=
EXTT10=
PLAYORDER=
